<?xml version="1.0" encoding="utf-8"?>
<!-- Generator: Adobe Illustrator 26.0.1, SVG Export Plug-In . SVG Version: 6.00 Build 0)  -->
<svg version="1.1" id="Layer_1" xmlns="http://www.w3.org/2000/svg" xmlns:xlink="http://www.w3.org/1999/xlink" x="0px" y="0px"
	 viewBox="0 0 24 24" style="enable-background:new 0 0 24 24;" xml:space="preserve">
<style type="text/css">
	.st0{fill:none;stroke:#FFFFFF;stroke-width:2;stroke-miterlimit:10;}
</style>
<circle class="st0" cx="12" cy="12" r="9.8"/>
<path d="M12,2.8c-5.1,0-9.2,4.1-9.2,9.2s4.1,9.2,9.2,9.2s9.2-4.1,9.2-9.2S17.1,2.8,12,2.8z M4.7,12c0-0.6,0.1-1.1,0.2-1.6l4.4,4.4
	v0.9c0,1,0.8,1.8,1.8,1.8v1.8C7.5,18.8,4.7,15.7,4.7,12z M17.4,16.9c-0.2-0.7-0.9-1.3-1.7-1.3h-0.9v-2.7c0-0.5-0.4-0.9-0.9-0.9H8.3
	v-1.8h1.8c0.5,0,0.9-0.4,0.9-0.9V7.4h1.8c1,0,1.8-0.8,1.8-1.8V5.2c2.7,1.1,4.6,3.7,4.6,6.8C19.3,13.9,18.6,15.6,17.4,16.9z"/>
</svg>
