<?xml version="1.0" encoding="utf-8"?>
<!-- Generator: Adobe Illustrator 26.0.1, SVG Export Plug-In . SVG Version: 6.00 Build 0)  -->
<svg version="1.1" id="Layer_1" xmlns="http://www.w3.org/2000/svg" xmlns:xlink="http://www.w3.org/1999/xlink" x="0px" y="0px"
	 viewBox="0 0 64 64" style="enable-background:new 0 0 64 64;" xml:space="preserve">
<style type="text/css">
	.st0{fill:#111517;}
</style>
<g>
	<path class="st0" d="M56.9,11.2C41.4,26.6,25.9,42.1,10.5,57.5c-0.3-0.3-0.6-0.6-0.9-0.9c-0.8-0.8-1.7-1.7-2.5-2.5
		c-0.5-0.3-0.3-0.6,0-0.9c4.2-4.2,8.4-8.4,12.6-12.5C25.3,35,30.8,29.4,36.4,24c5.3-5.3,10.8-10.8,16.1-16.1
		c0.2-0.2,0.6-0.3,0.8-0.2C54.4,8.8,55.6,10.1,56.9,11.2z"/>
	<path class="st0" d="M26.7,50.3c0.3-0.5,0.6-0.6,0.8-0.9c7-7,14.1-14.1,21.1-21.1c0.2-0.2,0.3-0.3,0.5-0.5c0.3-0.3,0.6-0.3,0.9,0.2
		c1.2,1.9,2,4.1,2.3,6.2c0.2,1.1,0.3,2.2,0.3,3.3c-0.2,3.7-1.4,7-3.9,9.8c-2.3,2.8-5.3,4.5-8.9,5.5c-4.5,1.1-8.6,0.2-12.5-2.3
		C27,50.5,26.9,50.3,26.7,50.3z"/>
	<path class="st0" d="M17.7,2.6c-5.5,4.2-8.4,9.5-8.6,16.2c0,6.7,3,12,8.1,16.1c-3,0.5-8.6-1.7-11.7-5.8c-4.4-5.5-4.8-12.5-1.6-18.3
		C7.1,5.8,11.6,3.2,17.7,2.6z"/>
	<path class="st0" d="M23.6,6.3c0.6,0,1.1-0.2,1.7-0.2c0.5,0,1.1-0.2,1.6,0c0.9,0,1.4-0.3,1.6-1.2c0.3-1.1,0.8-2.2,1.2-3.6
		c0.5,1.2,1.1,2.3,1.4,3.4c0.3,0.8,0.6,1.1,1.4,0.9c0.9,0,1.7,0,2.7,0.2c0.3,0,0.6,0.2,1.1,0.2c-1.1,0.9-1.9,1.6-2.8,2.3
		c-0.6,0.5-0.9,0.9-0.5,1.7c0.5,1.1,0.6,2.2,0.9,3.4c-0.6-0.5-1.2-0.8-2-1.2C30,11,30,11,28.3,12.2c-0.6,0.5-1.4,0.9-2.2,1.2
		c0.2-0.9,0.3-1.9,0.6-2.7C27.2,9.6,27,8.7,25.8,8C25,7.6,24.2,6.9,23.6,6.3C23.6,6.5,23.6,6.5,23.6,6.3z"/>
	<path class="st0" d="M56.1,33.3c-1.1-2.7-2-5-3.1-7.8c3.1,0.3,6.1,0.5,9.4,0.8C60,28.8,58.1,31,56.1,33.3z"/>
	<path class="st0" d="M24.9,53.5c2.7,1.1,5.2,2.2,7.7,3.1c-2.3,2-4.5,3.9-7,6.1C25.3,59.6,25,56.6,24.9,53.5z"/>
	<path class="st0" d="M52.8,48.3c1.1-2.7,2-5,3.1-7.7c2,2.3,4.1,4.7,6.2,7.2C58.9,47.8,55.9,48.2,52.8,48.3z"/>
	<path class="st0" d="M46.7,62.7c-2.2-1.9-4.4-3.9-6.9-5.9c2.7-1.1,5-2.2,7.7-3.3c-0.2,3.1-0.5,6.1-0.6,9.1
		C46.9,62.5,46.7,62.7,46.7,62.7z"/>
	<path class="st0" d="M23.9,24.4c-0.8-0.5-1.4-0.9-2.2-1.4c-0.5-0.3-0.8-0.3-1.2,0c-0.8,0.5-1.4,1.1-2.3,1.7c0.3-1.1,0.5-2,0.8-2.8
		c0.2-0.6,0-0.9-0.5-1.2c-0.6-0.5-1.4-1.1-2.2-1.7c1.1-0.2,1.9-0.3,2.8-0.3c0.6,0,0.9-0.3,1.1-0.8c0.3-0.8,0.6-1.7,0.9-2.7
		c0.5,0.9,0.8,1.7,1.1,2.7c0.2,0.6,0.6,0.9,1.4,0.9s1.7,0,2.5,0V19c-0.6,0.6-1.2,1.1-2,1.7c-0.5,0.3-0.6,0.6-0.5,1.4
		c0.3,0.8,0.5,1.6,0.6,2.3C24.1,24.3,23.9,24.4,23.9,24.4z"/>
</g>
</svg>
