<?xml version="1.0" encoding="utf-8"?>
<!-- Generator: Adobe Illustrator 26.0.1, SVG Export Plug-In . SVG Version: 6.00 Build 0)  -->
<svg version="1.1" id="Layer_1" xmlns="http://www.w3.org/2000/svg" xmlns:xlink="http://www.w3.org/1999/xlink" x="0px" y="0px"
	 viewBox="0 0 64 64" style="enable-background:new 0 0 64 64;" xml:space="preserve">
<style type="text/css">
	.st0{fill:#FFFFFF;}
</style>
<g>
	<path class="st0" d="M7.3,52.8c15.5-15.4,31-30.9,46.4-46.3c0.3,0.3,0.6,0.6,0.9,0.9c0.8,0.8,1.7,1.7,2.5,2.5
		c0.5,0.3,0.3,0.6,0,0.9c-4.2,4.2-8.4,8.4-12.6,12.5C38.9,29,33.4,34.6,27.8,40C22.5,45.3,17,50.8,11.7,56.1
		c-0.2,0.2-0.6,0.3-0.8,0.2C9.8,55.2,8.6,53.9,7.3,52.8z"/>
	<path class="st0" d="M37.5,13.7c-0.3,0.5-0.6,0.6-0.8,0.9c-7,7-14.1,14.1-21.1,21.1c-0.2,0.2-0.3,0.3-0.5,0.5
		c-0.3,0.3-0.6,0.3-0.9-0.2c-1.2-1.9-2-4.1-2.3-6.2c-0.2-1.1-0.3-2.2-0.3-3.3c0.2-3.7,1.4-7,3.9-9.8c2.3-2.8,5.3-4.5,8.9-5.5
		c4.5-1.1,8.6-0.2,12.5,2.3C37.2,13.5,37.3,13.7,37.5,13.7z"/>
	<path class="st0" d="M46.5,61.4c5.5-4.2,8.4-9.5,8.6-16.2c0-6.7-3-12-8.1-16.1c3-0.5,8.6,1.7,11.7,5.8c4.4,5.5,4.8,12.5,1.6,18.3
		C57.1,58.2,52.6,60.8,46.5,61.4z"/>
	<path class="st0" d="M40.6,57.7c-0.6,0-1.1,0.2-1.7,0.2c-0.5,0-1.1,0.2-1.6,0c-0.9,0-1.4,0.3-1.6,1.2c-0.3,1.1-0.8,2.2-1.2,3.6
		c-0.5-1.2-1.1-2.3-1.4-3.4c-0.3-0.8-0.6-1.1-1.4-0.9c-0.9,0-1.7,0-2.7-0.2c-0.3,0-0.6-0.2-1.1-0.2c1.1-0.9,1.9-1.6,2.8-2.3
		c0.6-0.5,0.9-0.9,0.5-1.7c-0.5-1.1-0.6-2.2-0.9-3.4c0.6,0.5,1.2,0.8,2,1.2c1.9,1.2,1.9,1.2,3.6,0c0.6-0.5,1.4-0.9,2.2-1.2
		c-0.2,0.9-0.3,1.9-0.6,2.7c-0.5,1.1-0.3,2,0.9,2.7C39.2,56.4,40,57.1,40.6,57.7C40.6,57.5,40.6,57.5,40.6,57.7z"/>
	<path class="st0" d="M8.1,30.7c1.1,2.7,2,5,3.1,7.8c-3.1-0.3-6.1-0.5-9.4-0.8C4.2,35.2,6.1,33,8.1,30.7z"/>
	<path class="st0" d="M39.3,10.5c-2.7-1.1-5.2-2.2-7.7-3.1c2.3-2,4.5-3.9,7-6.1C38.9,4.4,39.2,7.4,39.3,10.5z"/>
	<path class="st0" d="M11.4,15.7c-1.1,2.7-2,5-3.1,7.7c-2-2.3-4.1-4.7-6.2-7.2C5.3,16.2,8.3,15.8,11.4,15.7z"/>
	<path class="st0" d="M17.5,1.3c2.2,1.9,4.4,3.9,6.9,5.9c-2.7,1.1-5,2.2-7.7,3.3c0.2-3.1,0.5-6.1,0.6-9.1
		C17.3,1.5,17.5,1.3,17.5,1.3z"/>
	<path class="st0" d="M40.3,39.6c0.8,0.5,1.4,0.9,2.2,1.4c0.5,0.3,0.8,0.3,1.2,0c0.8-0.5,1.4-1.1,2.3-1.7c-0.3,1.1-0.5,2-0.8,2.8
		c-0.2,0.6,0,0.9,0.5,1.2c0.6,0.5,1.4,1.1,2.2,1.7c-1.1,0.2-1.9,0.3-2.8,0.3c-0.6,0-0.9,0.3-1.1,0.8c-0.3,0.8-0.6,1.7-0.9,2.7
		c-0.5-0.9-0.8-1.7-1.1-2.7c-0.2-0.6-0.6-0.9-1.4-0.9s-1.7,0-2.5,0V45c0.6-0.6,1.2-1.1,2-1.7c0.5-0.3,0.6-0.6,0.5-1.4
		c-0.3-0.8-0.5-1.6-0.6-2.3C40.1,39.7,40.3,39.6,40.3,39.6z"/>
</g>
</svg>
